<?xml version="1.0" encoding="UTF-8"?>
<svg id="_Слой_2" data-name="Слой 2" xmlns="http://www.w3.org/2000/svg" xmlns:xlink="http://www.w3.org/1999/xlink" viewBox="0 0 203.19 170.08">
  <defs>
    <style>
      .cls-1 {
        fill: url(#Unbenannter_Verlauf_79);
        stroke-width: 0px;
      }
    </style>
    <linearGradient id="Unbenannter_Verlauf_79" data-name="Unbenannter Verlauf 79" x1="0" y1="85.04" x2="203.19" y2="85.04" gradientUnits="userSpaceOnUse">
      <stop offset=".27" stop-color="#ff6b00"/>
      <stop offset=".34" stop-color="#c8bc00"/>
      <stop offset=".48" stop-color="#a6c85d"/>
      <stop offset=".55" stop-color="#8cc166"/>
      <stop offset=".67" stop-color="#00959b"/>
      <stop offset=".79" stop-color="#729f99"/>
      <stop offset="1" stop-color="#8ea29a"/>
    </linearGradient>
  </defs>
  <g id="Ebene_1" data-name="Ebene 1">
    <path class="cls-1" d="m112.28,91.61c-1.08,1.29-.74,2.73-.78,4.22-.02,19.46.05,38.93-.13,58.39-.44,4.87,3.23,4.37,6.86,4.24,11.98-.07,23.96-.14,35.94-.04,6.27-.28,11.78,4.83,11.76,11.14-22.95,1.13-47.55,0-71.04.39-1.01,0-.96,0-1.08-.99-.82-13.28-1.24-26.65-.35-39.92.23-3.36,1.38-7.47-2.86-7.91-6.79-.69-15.08-10.06-21.07-12.49-1.33-.46-3.4-.31-3.48,1.39-.42,8.94-1.26,23.32-1.91,32.08s-4.77,17.76-12.64,22.38C31.84,177.31-1.17,167.43.07,140.8c-.14-4.29-.54-10.12,5.12-10.61,1.18-.12,2.38-.16,3.55.13,5.9,1.42,3.82,8.25,4.34,12.68.84,20.76,35.63,21.09,37.18.53.37-16.71.46-33.48.38-50.2-.15-30.41,5.79-32.63,31.81-32.8,18.43-.12,36.87.05,55.31.11,2.16.09,4.66-.41,4.84-2.99.09-8.6-.23-17.22.07-25.83.11-3.81.82-8.64-4.16-9.39-11.02-2.64-10.19-18.82.25-22.11,1.89-.6,2.91-.47,2.99,1.39.2,4.53-.03,9.08,0,13.61-.26,3.62,3.78,2.83,6.16,2.79,3.24-.16.76-4.89.85-7.14.21-5.13,3.89-9.75,8.85-10.88,1.15-.25,2.36-.06,2.54,1.33.2,4.31.12,8.67-.03,12.99-.07,2.2.93,3.52,3.18,3.61,11.37,0,22.75-.15,34.12-.21,2.13-.05,5.28-.24,5.66,2.49.26,2.58-.04,5.2-.08,7.79-.09,1.04-.57,1.75-1.55,2.08-10.03,3.28-19.96,6.85-30.05,9.93-2.99.72-5.61,2.06-5.29,5.54.8,13.9-2.61,27.26-11.53,38.14-1.34,1.31-7.77,10.11-9.41,7.01-.97-2-.87-4.37-2.22-6.22-.7-.96-1.19,1.46-1.13,1.96.01,10.79.04,21.58.04,32.37-.05,4.39-5.61,1-7.39-.43-4.73-3.55-3.98-9.38-4.6-14.57-.33-1.69-1.01-2.25-2.74-2.24-13.87,1.84-10.14,3.06-14.87-10.06Zm41.79-64.83c-.04,4.2,6.3,4.25,6.38.09.04-4.16-6.31-4.29-6.38-.09Z"/>
  </g>
</svg>